<svg width="31" height="26" viewBox="0 0 31 26" fill="none" xmlns="http://www.w3.org/2000/svg">
<path d="M15.5 0.195923C14.8 0.195923 14.5666 0.66259 14.1 1.12926L0.566646 23.2959C0.333313 23.5293 0.333313 23.9959 0.333313 24.2293C0.333313 25.3959 1.26665 25.8626 1.96665 25.8626H29.0333C29.9666 25.8626 30.6666 25.3959 30.6666 24.2293C30.6666 23.7626 30.6666 23.7626 30.4333 23.2959L17.1333 1.12926C16.6666 0.66259 16.2 0.195923 15.5 0.195923ZM15.5 3.69592L23.2 16.5293H21.3333L17.8333 13.0293L15.5 16.5293L13.1666 13.0293L9.66665 16.5293H7.56665L15.5 3.69592Z" fill="url(#paint0_linear_2011_6148)"/>
<defs>
<linearGradient id="paint0_linear_2011_6148" x1="15.5" y1="0.195923" x2="15.5" y2="25.8626" gradientUnits="userSpaceOnUse">
<stop stop-color="#7CB4F9"/>
<stop offset="1" stop-color="#6DA2E4"/>
</linearGradient>
</defs>
</svg>
