<svg width="25" height="24" viewBox="0 0 25 24" fill="none" xmlns="http://www.w3.org/2000/svg">
<path d="M23.5126 17.8952L18.5935 12.9677V9.31422C18.5942 9.20318 18.5729 9.0931 18.5309 8.9903C18.4889 8.8875 18.427 8.794 18.3488 8.71516L9.91133 0.277656C9.83289 0.198573 9.73957 0.135802 9.63675 0.0929664C9.53393 0.0501303 9.42365 0.0280762 9.31226 0.0280762C9.20088 0.0280762 9.0906 0.0501303 8.98778 0.0929664C8.88496 0.135802 8.79164 0.198573 8.7132 0.277656L1.11945 7.87141C1.04037 7.94984 0.977599 8.04316 0.934763 8.14598C0.891927 8.2488 0.869873 8.35908 0.869873 8.47047C0.869873 8.58185 0.891927 8.69214 0.934763 8.79496C0.977599 8.89777 1.04037 8.99109 1.11945 9.06953L9.55695 17.507C9.63579 17.5852 9.72929 17.6471 9.83209 17.6891C9.93489 17.7311 10.045 17.7524 10.156 17.7517H13.8179L18.737 22.6792C19.3702 23.3125 20.2292 23.6683 21.1248 23.6683C22.0204 23.6683 22.8793 23.3125 23.5126 22.6792C24.1459 22.0459 24.5016 21.187 24.5016 20.2914C24.5016 19.3958 24.1459 18.5369 23.5126 17.9036V17.8952ZM4.24977 7.12891L6.18195 9.06953L7.38008 7.87141L5.43945 5.93922L6.78101 4.59766L10.4007 8.22578L11.5988 7.02766L7.9707 3.40797L9.31226 2.06641L14.8726 7.62672L8.46851 14.0308L2.9082 8.47047L4.24977 7.12891ZM22.3145 21.4727C21.9983 21.787 21.5706 21.9634 21.1248 21.9634C20.6789 21.9634 20.2512 21.787 19.9351 21.4727L14.7629 16.3089C14.5831 16.1853 14.3788 16.1018 14.1638 16.0642H10.502L9.6582 15.2205L16.0623 8.81641L16.906 9.66016V13.322C16.9069 13.5434 16.9948 13.7555 17.1507 13.9127L22.3145 19.0933C22.6287 19.4095 22.8052 19.8372 22.8052 20.283C22.8052 20.7288 22.6287 21.1565 22.3145 21.4727Z" fill="url(#paint0_linear_2011_6193)"/>
<path d="M22.3145 21.4727C21.9983 21.787 21.5706 21.9634 21.1248 21.9634C20.6789 21.9634 20.2512 21.787 19.9351 21.4727L14.7629 16.3089C14.5831 16.1853 14.3788 16.1018 14.1638 16.0642H10.502L9.6582 15.2205L16.0623 8.81641L16.906 9.66016V13.322C16.9069 13.5434 16.9948 13.7555 17.1507 13.9127L22.3145 19.0933C22.6287 19.4095 22.8052 19.8372 22.8052 20.283C22.8052 20.7288 22.6287 21.1565 22.3145 21.4727Z" fill="url(#paint1_linear_2011_6193)"/>
<defs>
<linearGradient id="paint0_linear_2011_6193" x1="12.6858" y1="0.0280762" x2="12.6858" y2="23.6683" gradientUnits="userSpaceOnUse">
<stop stop-color="#FFA764"/>
<stop offset="1" stop-color="#F17F29"/>
</linearGradient>
<linearGradient id="paint1_linear_2011_6193" x1="12.6858" y1="0.0280762" x2="12.6858" y2="23.6683" gradientUnits="userSpaceOnUse">
<stop stop-color="#FFA764"/>
<stop offset="1" stop-color="#F17F29"/>
</linearGradient>
</defs>
</svg>
